<?xml version="1.0" encoding="utf-8"?>
<!-- Generator: Adobe Illustrator 16.0.0, SVG Export Plug-In . SVG Version: 6.00 Build 0)  -->
<!DOCTYPE svg PUBLIC "-//W3C//DTD SVG 1.1//EN" "http://www.w3.org/Graphics/SVG/1.1/DTD/svg11.dtd">
<svg version="1.1" id="Laag_1" xmlns="http://www.w3.org/2000/svg" xmlns:xlink="http://www.w3.org/1999/xlink" x="0px" y="0px"
	 width="68.02px" height="43.709px" viewBox="9.395 69.57 68.02 43.709" enable-background="new 9.395 69.57 68.02 43.709"
	 xml:space="preserve">
<g>
	<g>
		<path d="M22.223,102.353v-0.635c0.956,0,1.608-0.258,1.956-0.773c0.348-0.515,0.522-1.414,0.522-2.695V84.618
			c0-1.317-0.172-2.229-0.513-2.731c-0.342-0.504-0.997-0.756-1.966-0.756v-0.634h7.825v0.634c-0.92,0-1.556,0.26-1.91,0.782
			c-0.354,0.521-0.531,1.423-0.531,2.701v6.595l7.139-7.02c0.759-0.758,1.138-1.366,1.138-1.827c0-0.635-0.461-1.046-1.383-1.232
			v-0.633h8.254v0.633h-1.081c-0.658,0-1.413,0.221-2.263,0.662c-0.851,0.44-1.631,1.021-2.339,1.741l-6.798,6.722l9.033,9.153
			c0.895,0.928,1.584,1.528,2.068,1.803c0.485,0.275,1.162,0.445,2.031,0.507v0.635h-5.199L27.607,91.64v6.607
			c0,1.281,0.171,2.181,0.512,2.697c0.342,0.516,0.985,0.775,1.929,0.775v0.634L22.223,102.353L22.223,102.353z"/>
	</g>
	<g>
		<path d="M15.803,93.2c-0.12-0.054-0.251-0.097-0.381-0.144c-0.135-0.057-0.282-0.069-0.429-0.098
			c-0.146-0.027-0.294-0.05-0.443-0.04c-0.148,0.002-0.301,0-0.449,0.012c-0.145,0.026-0.291,0.054-0.438,0.082
			c-0.297,0.042-0.557,0.18-0.831,0.267c-0.262,0.114-0.505,0.258-0.749,0.382c-0.236,0.138-0.448,0.3-0.661,0.441
			c-0.424,0.287-0.762,0.62-1.076,0.87c-0.57,0.562-0.95,0.937-0.95,0.937s0.59-0.395,1.149-0.649
			c0.352-0.18,0.686-0.327,1.133-0.513c0.312-0.109,0.486-0.156,0.722-0.236c0.352-0.086,0.528-0.062,0.725-0.087
			c-0.073,0.212-0.122,0.435-0.122,0.671c0,1.129,0.915,2.044,2.044,2.044c1.071,0,1.941-0.828,2.026-1.878l0.017-0.001
			c0,0-0.003-0.031-0.009-0.076c0.001-0.03,0.009-0.059,0.009-0.089C17.089,94.234,16.556,93.502,15.803,93.2z"/>
		<path d="M18.909,87.633c-0.353,0.18-0.684,0.327-1.133,0.514c-0.312,0.107-0.486,0.156-0.722,0.235
			c-0.351,0.086-0.528,0.062-0.725,0.086c0.073-0.21,0.121-0.434,0.121-0.67c0-1.129-0.914-2.044-2.043-2.044
			c-1.072,0-1.94,0.828-2.026,1.879h-0.017c0,0,0.004,0.031,0.009,0.076c-0.001,0.03-0.009,0.059-0.009,0.089
			c0,0.86,0.532,1.593,1.286,1.895c0.121,0.053,0.252,0.097,0.383,0.144c0.133,0.057,0.281,0.069,0.427,0.098
			c0.147,0.027,0.294,0.05,0.445,0.04c0.149-0.002,0.301,0,0.45-0.012c0.145-0.027,0.291-0.054,0.438-0.082
			c0.297-0.042,0.556-0.18,0.832-0.268c0.261-0.113,0.504-0.257,0.749-0.382c0.237-0.137,0.448-0.3,0.661-0.44
			c0.424-0.287,0.762-0.621,1.076-0.87c0.569-0.562,0.949-0.937,0.949-0.937S19.468,87.377,18.909,87.633z"/>
	</g>
</g>
</svg>
