<?xml version="1.0" encoding="utf-8"?>
<!-- Generator: Adobe Illustrator 16.0.0, SVG Export Plug-In . SVG Version: 6.00 Build 0)  -->
<!DOCTYPE svg PUBLIC "-//W3C//DTD SVG 1.1//EN" "http://www.w3.org/Graphics/SVG/1.1/DTD/svg11.dtd">
<svg version="1.1" id="Laag_1" xmlns="http://www.w3.org/2000/svg" xmlns:xlink="http://www.w3.org/1999/xlink" x="0px" y="0px"
	 width="136.043px" height="123.707px" viewBox="0 0 136.043 123.707" enable-background="new 0 0 136.043 123.707"
	 xml:space="preserve">
<g>
	<g>
		<path fill="#FFFFFF" d="M41.274,113.278v-2.041c3.076,0,5.176-0.829,6.293-2.488c1.119-1.658,1.681-4.552,1.681-8.673V56.219
			c0-4.24-0.553-7.17-1.649-8.789c-1.101-1.623-3.208-2.434-6.326-2.434v-2.038h25.178v2.038c-2.961,0-5.006,0.837-6.146,2.519
			c-1.138,1.678-1.708,4.577-1.708,8.691v21.219L81.566,54.84c2.441-2.438,3.662-4.396,3.662-5.879c0-2.042-1.485-3.365-4.45-3.965
			v-2.036h26.555v2.036h-3.477c-2.118,0-4.547,0.71-7.28,2.13c-2.739,1.417-5.248,3.287-7.525,5.603L67.177,74.356l29.064,29.448
			c2.878,2.984,5.097,4.919,6.655,5.8c1.561,0.888,3.736,1.434,6.534,1.633v2.041H92.702l-34.106-34.47v21.26
			c0,4.124,0.551,7.017,1.648,8.681c1.101,1.659,3.169,2.493,6.206,2.493v2.039H41.274V113.278z"/>
	</g>
	<g>
		<path fill="#FFFFFF" d="M20.619,83.83c-0.387-0.172-0.809-0.31-1.227-0.462c-0.435-0.181-0.908-0.224-1.379-0.313
			c-0.468-0.089-0.946-0.161-1.427-0.129c-0.478,0.007-0.968,0-1.444,0.037c-0.465,0.086-0.935,0.172-1.411,0.264
			c-0.956,0.135-1.791,0.578-2.674,0.859c-0.844,0.366-1.625,0.828-2.41,1.227c-0.761,0.443-1.441,0.967-2.127,1.421
			c-1.365,0.924-2.453,1.995-3.463,2.799C1.221,91.34,0,92.546,0,92.546s1.897-1.27,3.697-2.09c1.131-0.578,2.206-1.052,3.646-1.649
			c1.006-0.352,1.566-0.503,2.325-0.76c1.131-0.275,1.697-0.198,2.332-0.278c-0.235,0.68-0.393,1.396-0.393,2.157
			c0,3.632,2.944,6.576,6.577,6.576c3.448,0,6.248-2.664,6.521-6.042l0.053-0.004c0,0-0.01-0.099-0.029-0.245
			c0.003-0.097,0.029-0.187,0.029-0.285C24.755,87.157,23.04,84.801,20.619,83.83z"/>
		<path fill="#FFFFFF" d="M30.612,65.919c-1.134,0.578-2.202,1.053-3.645,1.651c-1.005,0.348-1.565,0.505-2.322,0.758
			c-1.13,0.277-1.7,0.199-2.334,0.277c0.236-0.677,0.389-1.395,0.389-2.155c0-3.632-2.941-6.577-6.573-6.577
			c-3.448,0-6.244,2.665-6.52,6.044l-0.053,0.001c0,0,0.012,0.101,0.029,0.245c-0.005,0.098-0.029,0.188-0.029,0.286
			c0,2.769,1.713,5.125,4.137,6.096c0.39,0.17,0.812,0.312,1.231,0.462c0.43,0.183,0.904,0.224,1.374,0.314
			c0.473,0.088,0.947,0.16,1.43,0.129c0.479-0.007,0.967,0,1.446-0.038c0.465-0.088,0.935-0.173,1.409-0.264
			c0.958-0.135,1.789-0.578,2.676-0.861c0.841-0.364,1.621-0.826,2.409-1.229c0.762-0.439,1.443-0.965,2.128-1.417
			c1.364-0.924,2.45-1.998,3.462-2.8c1.832-1.807,3.054-3.013,3.054-3.013S32.41,65.096,30.612,65.919z"/>
	</g>
</g>
</svg>
